# xmcd
#
# Track frame offsets:
#	150
#	12827
#	21380
#	33475
#	47802
#	58747
#	71507
#	84707
#	97225
#	110035
#	122417
#	132547
#	142512
#	152557
#
# Disc length: 2216 seconds
#
# Revision: 0
# Processed by: cddbd v1.5.2PL0 Copyright (c) Steve Scherf et al.
# Submitted via: EasyCDDAExtractor 16.1.0.1
#
DISCID=c008a60e
DTITLE=Hank And His Milkmen - Piruparka pyyt‰‰ maitoa
DYEAR=1988
DGENRE=Country
TTITLE0=Viini, naiset ja laulu
TTITLE1=Karjapaimen
TTITLE2=Ned Kelly
TTITLE3=Tule viereeni
TTITLE4=Muukalainen
TTITLE5=Piruparka
TTITLE6=Kirottu kyl‰
TTITLE7=Na na naa
TTITLE8=Viimeinen tuoppi
TTITLE9=Viini taas virtaa
TTITLE10=Oodi nuoruudelle
TTITLE11=T‰nne takaisin
TTITLE12=Kaksintaistelu
TTITLE13=Viel‰ kerran
EXTD=
EXTT0=
EXTT1=
EXTT2=
EXTT3=
EXTT4=
EXTT5=
EXTT6=
EXTT7=
EXTT8=
EXTT9=
EXTT10=
EXTT11=
EXTT12=
EXTT13=
PLAYORDER=
